<svg xmlns="http://www.w3.org/2000/svg" xmlns:xlink="http://www.w3.org/1999/xlink" width="500" zoomAndPan="magnify" viewBox="0 0 375 374.999991" height="500" preserveAspectRatio="xMidYMid meet" version="1.0"><defs><g/><clipPath id="a576d0b52d"><path d="M 17.25 0 L 357.75 0 C 362.324219 0 366.710938 1.816406 369.949219 5.050781 C 373.183594 8.289062 375 12.675781 375 17.25 L 375 357.75 C 375 362.324219 373.183594 366.710938 369.949219 369.949219 C 366.710938 373.183594 362.324219 375 357.75 375 L 17.25 375 C 12.675781 375 8.289062 373.183594 5.050781 369.949219 C 1.816406 366.710938 0 362.324219 0 357.75 L 0 17.25 C 0 12.675781 1.816406 8.289062 5.050781 5.050781 C 8.289062 1.816406 12.675781 0 17.25 0 Z M 17.25 0 " clip-rule="nonzero"/></clipPath><clipPath id="713e553529"><path d="M 0 0 L 375 0 L 375 375 L 0 375 Z M 0 0 " clip-rule="nonzero"/></clipPath><clipPath id="8144cf6127"><path d="M 17.25 0 L 357.75 0 C 362.324219 0 366.710938 1.816406 369.949219 5.050781 C 373.183594 8.289062 375 12.675781 375 17.25 L 375 357.75 C 375 362.324219 373.183594 366.710938 369.949219 369.949219 C 366.710938 373.183594 362.324219 375 357.75 375 L 17.25 375 C 12.675781 375 8.289062 373.183594 5.050781 369.949219 C 1.816406 366.710938 0 362.324219 0 357.75 L 0 17.25 C 0 12.675781 1.816406 8.289062 5.050781 5.050781 C 8.289062 1.816406 12.675781 0 17.25 0 Z M 17.25 0 " clip-rule="nonzero"/></clipPath><clipPath id="054af9e4f8"><rect x="0" width="375" y="0" height="375"/></clipPath><clipPath id="e847752f0a"><path d="M 55.972656 24.273438 L 319.222656 24.273438 L 319.222656 287.523438 L 55.972656 287.523438 Z M 55.972656 24.273438 " clip-rule="nonzero"/></clipPath><clipPath id="1310b26498"><path d="M 57 76 L 177 76 L 177 191 L 57 191 Z M 57 76 " clip-rule="nonzero"/></clipPath><clipPath id="ac3bca572c"><path d="M 191.324219 112.125 L 63.589844 190.757812 L 25.453125 128.808594 L 153.1875 50.171875 Z M 191.324219 112.125 " clip-rule="nonzero"/></clipPath><clipPath id="ec35fe7563"><path d="M 191.324219 112.125 L 63.589844 190.757812 L 25.453125 128.808594 L 153.1875 50.171875 Z M 191.324219 112.125 " clip-rule="nonzero"/></clipPath></defs><g clip-path="url(#a576d0b52d)"><g transform="matrix(1, 0, 0, 1, 0, 0)"><g clip-path="url(#054af9e4f8)"><g clip-path="url(#713e553529)"><g clip-path="url(#8144cf6127)"><rect x="-82.5" width="540" fill="#c8001e" height="539.999987" y="-82.499998" fill-opacity="1"/></g></g></g></g></g><g clip-path="url(#e847752f0a)"><path fill="#f4f5f7" d="M 187.503906 24.242188 C 114.9375 24.242188 55.980469 83.203125 55.980469 155.769531 C 55.980469 228.332031 114.9375 287.292969 187.503906 287.292969 C 260.070312 287.292969 319.03125 228.332031 319.03125 155.769531 C 319.03125 83.203125 260.070312 24.242188 187.503906 24.242188 Z M 187.503906 36.769531 C 253.300781 36.769531 306.503906 89.972656 306.503906 155.769531 C 306.503906 221.5625 253.300781 274.765625 187.503906 274.765625 C 121.707031 274.765625 68.503906 221.5625 68.503906 155.769531 C 68.503906 89.972656 121.707031 36.769531 187.503906 36.769531 Z M 143.664062 80.609375 C 143.25 80.609375 142.84375 80.652344 142.441406 80.730469 C 142.039062 80.8125 141.644531 80.929688 141.265625 81.085938 C 140.886719 81.246094 140.523438 81.4375 140.183594 81.667969 C 139.839844 81.894531 139.523438 82.152344 139.234375 82.445312 C 138.941406 82.734375 138.683594 83.050781 138.453125 83.394531 C 138.226562 83.734375 138.035156 84.097656 137.875 84.476562 C 137.71875 84.855469 137.601562 85.25 137.519531 85.652344 C 137.441406 86.054688 137.398438 86.460938 137.398438 86.875 L 137.398438 224.660156 C 137.394531 225.078125 137.429688 225.488281 137.503906 225.898438 C 137.582031 226.304688 137.695312 226.699219 137.851562 227.085938 C 138.003906 227.472656 138.195312 227.835938 138.421875 228.183594 C 138.652344 228.53125 138.910156 228.851562 139.203125 229.148438 C 139.492188 229.445312 139.8125 229.707031 140.15625 229.941406 C 140.5 230.171875 140.863281 230.367188 141.246094 230.527344 C 141.628906 230.6875 142.023438 230.808594 142.429688 230.890625 C 142.835938 230.972656 143.246094 231.015625 143.664062 231.015625 C 144.078125 231.015625 144.488281 230.972656 144.894531 230.890625 C 145.300781 230.808594 145.695312 230.6875 146.078125 230.527344 C 146.460938 230.367188 146.824219 230.171875 147.171875 229.941406 C 147.515625 229.707031 147.832031 229.445312 148.121094 229.148438 C 148.414062 228.851562 148.671875 228.53125 148.902344 228.183594 C 149.128906 227.835938 149.320312 227.472656 149.472656 227.085938 C 149.628906 226.699219 149.746094 226.304688 149.820312 225.898438 C 149.894531 225.488281 149.929688 225.078125 149.925781 224.660156 L 149.925781 93.136719 L 200.03125 93.136719 C 217.402344 93.136719 231.347656 107.082031 231.347656 124.453125 C 231.347656 141.714844 217.554688 155.535156 200.335938 155.707031 C 199.898438 155.679688 199.460938 155.703125 199.027344 155.769531 L 168.714844 155.769531 C 168.300781 155.761719 167.886719 155.796875 167.480469 155.871094 C 167.074219 155.949219 166.675781 156.0625 166.289062 156.21875 C 165.90625 156.375 165.539062 156.566406 165.191406 156.792969 C 164.84375 157.019531 164.523438 157.277344 164.230469 157.570312 C 163.933594 157.863281 163.667969 158.179688 163.4375 158.523438 C 163.203125 158.867188 163.007812 159.230469 162.847656 159.613281 C 162.6875 159.996094 162.566406 160.390625 162.484375 160.796875 C 162.402344 161.203125 162.363281 161.617188 162.363281 162.03125 C 162.363281 162.445312 162.402344 162.855469 162.484375 163.265625 C 162.566406 163.671875 162.6875 164.066406 162.847656 164.449219 C 163.007812 164.832031 163.203125 165.195312 163.4375 165.539062 C 163.667969 165.882812 163.933594 166.199219 164.230469 166.492188 C 164.523438 166.78125 164.84375 167.042969 165.191406 167.269531 C 165.539062 167.496094 165.90625 167.6875 166.289062 167.84375 C 166.675781 167.996094 167.074219 168.113281 167.480469 168.1875 C 167.886719 168.265625 168.300781 168.300781 168.714844 168.292969 L 196.386719 168.292969 L 230.28125 227.769531 C 230.484375 228.125 230.722656 228.460938 230.992188 228.769531 C 231.261719 229.078125 231.5625 229.359375 231.886719 229.613281 C 232.210938 229.863281 232.558594 230.082031 232.925781 230.265625 C 233.292969 230.449219 233.675781 230.59375 234.074219 230.703125 C 234.46875 230.808594 234.875 230.878906 235.285156 230.90625 C 235.695312 230.9375 236.101562 230.925781 236.511719 230.871094 C 236.917969 230.820312 237.316406 230.730469 237.707031 230.601562 C 238.097656 230.46875 238.472656 230.300781 238.828125 230.097656 C 239.1875 229.894531 239.519531 229.65625 239.828125 229.386719 C 240.140625 229.117188 240.421875 228.820312 240.671875 228.496094 C 240.925781 228.171875 241.144531 227.824219 241.328125 227.457031 C 241.511719 227.089844 241.65625 226.707031 241.765625 226.3125 C 241.875 225.914062 241.945312 225.511719 241.972656 225.101562 C 242.003906 224.691406 241.992188 224.28125 241.941406 223.875 C 241.890625 223.464844 241.796875 223.066406 241.667969 222.675781 C 241.539062 222.285156 241.371094 221.914062 241.167969 221.554688 L 209.695312 166.335938 C 229.066406 161.804688 243.871094 145.167969 243.871094 124.453125 C 243.871094 100.3125 224.171875 80.609375 200.03125 80.609375 Z M 143.664062 80.609375 " fill-opacity="1" fill-rule="nonzero"/></g><g clip-path="url(#1310b26498)"><g clip-path="url(#ac3bca572c)"><g clip-path="url(#ec35fe7563)"><path fill="#f4f5f7" d="M 63.730469 190.527344 C 62.296875 188.140625 60.164062 186.007812 59.4375 183.222656 C 59.175781 182.199219 59.683594 181.082031 59.4375 180.183594 C 59.199219 179.3125 58.199219 178.859375 57.964844 177.855469 C 57.367188 175.238281 60.53125 164.261719 61.449219 161.03125 C 63.964844 152.144531 66.832031 144.453125 71.824219 136.300781 C 87.5 110.707031 109.597656 92.347656 139.007812 84.765625 C 139.085938 83.945312 137.324219 83.84375 136.734375 83.753906 C 134.609375 83.453125 131.511719 83.332031 129.296875 83.246094 C 121.554688 82.949219 114.386719 85.871094 109.753906 77.5625 C 114.421875 75.9375 119.074219 76.15625 123.941406 76.128906 C 133.886719 76.085938 157.332031 76.550781 165.785156 80.238281 C 167.859375 81.144531 178.398438 86.222656 175.6875 89 C 158.644531 95.945312 146.765625 110.09375 133.640625 122.296875 C 132.039062 123.742188 129.652344 119.605469 129.519531 118.691406 C 129.429688 118.109375 130.316406 117.609375 130.304688 116.980469 C 130.285156 116.101562 129.558594 115.328125 129.554688 114.878906 C 129.570312 107.839844 135.09375 102.914062 139.59375 98.015625 C 140.089844 97.472656 141.28125 96.769531 140.621094 96.003906 C 136.828125 98.03125 132.453125 99.109375 128.609375 100.953125 C 101.316406 114.058594 72.921875 147.996094 66.949219 177.957031 C 66.144531 181.996094 67.265625 187.417969 63.714844 190.53125 Z M 66.589844 148.890625 L 67.765625 148.167969 L 67.410156 147.589844 L 66.234375 148.316406 Z M 66.589844 148.890625 " fill-opacity="1" fill-rule="nonzero"/></g></g></g><g fill="#ffffff" fill-opacity="1"><g transform="translate(44.847658, 330.34993)"><g><path d="M 7.71875 0.265625 C 6.75 0.265625 5.851562 0.078125 5.03125 -0.296875 C 4.207031 -0.671875 3.492188 -1.179688 2.890625 -1.828125 C 2.296875 -2.484375 1.832031 -3.226562 1.5 -4.0625 C 1.175781 -4.90625 1.015625 -5.796875 1.015625 -6.734375 C 1.015625 -7.703125 1.175781 -8.609375 1.5 -9.453125 C 1.832031 -10.296875 2.300781 -11.039062 2.90625 -11.6875 C 3.519531 -12.332031 4.238281 -12.84375 5.0625 -13.21875 C 5.882812 -13.59375 6.78125 -13.78125 7.75 -13.78125 C 8.71875 -13.78125 9.609375 -13.59375 10.421875 -13.21875 C 11.234375 -12.84375 11.941406 -12.332031 12.546875 -11.6875 C 13.160156 -11.039062 13.628906 -10.296875 13.953125 -9.453125 C 14.285156 -8.609375 14.453125 -7.703125 14.453125 -6.734375 C 14.453125 -5.796875 14.285156 -4.90625 13.953125 -4.0625 C 13.628906 -3.226562 13.164062 -2.484375 12.5625 -1.828125 C 11.96875 -1.179688 11.257812 -0.671875 10.4375 -0.296875 C 9.613281 0.078125 8.707031 0.265625 7.71875 0.265625 Z M 2.8125 -6.703125 C 2.8125 -5.703125 3.03125 -4.789062 3.46875 -3.96875 C 3.914062 -3.144531 4.507812 -2.492188 5.25 -2.015625 C 6 -1.535156 6.820312 -1.296875 7.71875 -1.296875 C 8.625 -1.296875 9.445312 -1.535156 10.1875 -2.015625 C 10.9375 -2.503906 11.535156 -3.171875 11.984375 -4.015625 C 12.429688 -4.859375 12.65625 -5.773438 12.65625 -6.765625 C 12.65625 -7.765625 12.429688 -8.679688 11.984375 -9.515625 C 11.535156 -10.347656 10.9375 -11.003906 10.1875 -11.484375 C 9.445312 -11.972656 8.625 -12.21875 7.71875 -12.21875 C 6.820312 -12.21875 6.003906 -11.96875 5.265625 -11.46875 C 4.523438 -10.96875 3.929688 -10.300781 3.484375 -9.46875 C 3.035156 -8.644531 2.8125 -7.722656 2.8125 -6.703125 Z M 2.8125 -6.703125 "/></g></g></g><g fill="#ffffff" fill-opacity="1"><g transform="translate(60.079068, 330.34993)"><g><path d="M 2.59375 0 L 2.59375 -12.140625 L 0.734375 -12.140625 L 0.734375 -13.546875 L 2.59375 -13.546875 L 2.59375 -13.90625 C 2.59375 -15.019531 2.753906 -15.972656 3.078125 -16.765625 C 3.398438 -17.566406 3.859375 -18.175781 4.453125 -18.59375 C 5.054688 -19.019531 5.765625 -19.234375 6.578125 -19.234375 C 7.117188 -19.234375 7.640625 -19.15625 8.140625 -19 C 8.640625 -18.84375 9.070312 -18.632812 9.4375 -18.375 L 8.890625 -17.109375 C 8.660156 -17.296875 8.363281 -17.441406 8 -17.546875 C 7.644531 -17.648438 7.285156 -17.703125 6.921875 -17.703125 C 6.097656 -17.703125 5.46875 -17.378906 5.03125 -16.734375 C 4.59375 -16.097656 4.375 -15.175781 4.375 -13.96875 L 4.375 -13.546875 L 8.109375 -13.546875 L 8.109375 -12.140625 L 4.375 -12.140625 L 4.375 0 Z M 2.59375 0 "/></g></g></g><g fill="#ffffff" fill-opacity="1"><g transform="translate(68.656494, 330.34993)"><g><path d="M 2.59375 0 L 2.59375 -12.140625 L 0.734375 -12.140625 L 0.734375 -13.546875 L 2.59375 -13.546875 L 2.59375 -13.90625 C 2.59375 -15.019531 2.753906 -15.972656 3.078125 -16.765625 C 3.398438 -17.566406 3.859375 -18.175781 4.453125 -18.59375 C 5.054688 -19.019531 5.765625 -19.234375 6.578125 -19.234375 C 7.117188 -19.234375 7.640625 -19.15625 8.140625 -19 C 8.640625 -18.84375 9.070312 -18.632812 9.4375 -18.375 L 8.890625 -17.109375 C 8.660156 -17.296875 8.363281 -17.441406 8 -17.546875 C 7.644531 -17.648438 7.285156 -17.703125 6.921875 -17.703125 C 6.097656 -17.703125 5.46875 -17.378906 5.03125 -16.734375 C 4.59375 -16.097656 4.375 -15.175781 4.375 -13.96875 L 4.375 -13.546875 L 8.109375 -13.546875 L 8.109375 -12.140625 L 4.375 -12.140625 L 4.375 0 Z M 2.59375 0 "/></g></g></g><g fill="#ffffff" fill-opacity="1"><g transform="translate(76.817996, 330.34993)"><g><path d="M 7.796875 0.265625 C 6.828125 0.265625 5.925781 0.078125 5.09375 -0.296875 C 4.257812 -0.671875 3.539062 -1.179688 2.9375 -1.828125 C 2.332031 -2.484375 1.859375 -3.234375 1.515625 -4.078125 C 1.179688 -4.929688 1.015625 -5.84375 1.015625 -6.8125 C 1.015625 -8.070312 1.300781 -9.226562 1.875 -10.28125 C 2.457031 -11.34375 3.257812 -12.191406 4.28125 -12.828125 C 5.3125 -13.460938 6.476562 -13.78125 7.78125 -13.78125 C 9.113281 -13.78125 10.273438 -13.457031 11.265625 -12.8125 C 12.265625 -12.175781 13.050781 -11.332031 13.625 -10.28125 C 14.195312 -9.226562 14.484375 -8.082031 14.484375 -6.84375 C 14.484375 -6.695312 14.484375 -6.554688 14.484375 -6.421875 C 14.484375 -6.296875 14.472656 -6.203125 14.453125 -6.140625 L 2.859375 -6.140625 C 2.941406 -5.171875 3.210938 -4.304688 3.671875 -3.546875 C 4.140625 -2.796875 4.738281 -2.195312 5.46875 -1.75 C 6.207031 -1.3125 7.007812 -1.09375 7.875 -1.09375 C 8.757812 -1.09375 9.59375 -1.316406 10.375 -1.765625 C 11.164062 -2.210938 11.71875 -2.800781 12.03125 -3.53125 L 13.578125 -3.125 C 13.296875 -2.476562 12.867188 -1.894531 12.296875 -1.375 C 11.722656 -0.851562 11.050781 -0.445312 10.28125 -0.15625 C 9.507812 0.125 8.679688 0.265625 7.796875 0.265625 Z M 2.8125 -7.40625 L 12.8125 -7.40625 C 12.75 -8.394531 12.488281 -9.257812 12.03125 -10 C 11.570312 -10.75 10.972656 -11.335938 10.234375 -11.765625 C 9.492188 -12.191406 8.679688 -12.40625 7.796875 -12.40625 C 6.910156 -12.40625 6.101562 -12.191406 5.375 -11.765625 C 4.65625 -11.335938 4.0625 -10.742188 3.59375 -9.984375 C 3.132812 -9.234375 2.875 -8.375 2.8125 -7.40625 Z M 2.8125 -7.40625 "/></g></g></g><g fill="#ffffff" fill-opacity="1"><g transform="translate(92.07543, 330.34993)"><g><path d="M 8.703125 -11.984375 C 7.523438 -11.953125 6.488281 -11.625 5.59375 -11 C 4.707031 -10.375 4.082031 -9.515625 3.71875 -8.421875 L 3.71875 0 L 1.953125 0 L 1.953125 -13.546875 L 3.609375 -13.546875 L 3.609375 -10.296875 C 4.078125 -11.242188 4.695312 -12.015625 5.46875 -12.609375 C 6.238281 -13.203125 7.0625 -13.53125 7.9375 -13.59375 C 8.101562 -13.613281 8.25 -13.625 8.375 -13.625 C 8.507812 -13.625 8.617188 -13.613281 8.703125 -13.59375 Z M 8.703125 -11.984375 "/></g></g></g><g fill="#ffffff" fill-opacity="1"><g transform="translate(101.198694, 330.34993)"><g><path d="M 8.453125 -0.65625 C 8.304688 -0.601562 8.085938 -0.503906 7.796875 -0.359375 C 7.503906 -0.222656 7.148438 -0.101562 6.734375 0 C 6.316406 0.101562 5.863281 0.15625 5.375 0.15625 C 4.875 0.15625 4.398438 0.0625 3.953125 -0.125 C 3.515625 -0.320312 3.164062 -0.613281 2.90625 -1 C 2.644531 -1.394531 2.515625 -1.875 2.515625 -2.4375 L 2.515625 -12.140625 L 0.65625 -12.140625 L 0.65625 -13.546875 L 2.515625 -13.546875 L 2.515625 -18.125 L 4.296875 -18.125 L 4.296875 -13.546875 L 7.40625 -13.546875 L 7.40625 -12.140625 L 4.296875 -12.140625 L 4.296875 -2.9375 C 4.328125 -2.445312 4.5 -2.082031 4.8125 -1.84375 C 5.132812 -1.601562 5.503906 -1.484375 5.921875 -1.484375 C 6.410156 -1.484375 6.851562 -1.5625 7.25 -1.71875 C 7.65625 -1.882812 7.898438 -2.003906 7.984375 -2.078125 Z M 8.453125 -0.65625 "/></g></g></g><g fill="#ffffff" fill-opacity="1"><g transform="translate(109.672139, 330.34993)"><g><path d="M 7.796875 0.265625 C 6.828125 0.265625 5.925781 0.078125 5.09375 -0.296875 C 4.257812 -0.671875 3.539062 -1.179688 2.9375 -1.828125 C 2.332031 -2.484375 1.859375 -3.234375 1.515625 -4.078125 C 1.179688 -4.929688 1.015625 -5.84375 1.015625 -6.8125 C 1.015625 -8.070312 1.300781 -9.226562 1.875 -10.28125 C 2.457031 -11.34375 3.257812 -12.191406 4.28125 -12.828125 C 5.3125 -13.460938 6.476562 -13.78125 7.78125 -13.78125 C 9.113281 -13.78125 10.273438 -13.457031 11.265625 -12.8125 C 12.265625 -12.175781 13.050781 -11.332031 13.625 -10.28125 C 14.195312 -9.226562 14.484375 -8.082031 14.484375 -6.84375 C 14.484375 -6.695312 14.484375 -6.554688 14.484375 -6.421875 C 14.484375 -6.296875 14.472656 -6.203125 14.453125 -6.140625 L 2.859375 -6.140625 C 2.941406 -5.171875 3.210938 -4.304688 3.671875 -3.546875 C 4.140625 -2.796875 4.738281 -2.195312 5.46875 -1.75 C 6.207031 -1.3125 7.007812 -1.09375 7.875 -1.09375 C 8.757812 -1.09375 9.59375 -1.316406 10.375 -1.765625 C 11.164062 -2.210938 11.71875 -2.800781 12.03125 -3.53125 L 13.578125 -3.125 C 13.296875 -2.476562 12.867188 -1.894531 12.296875 -1.375 C 11.722656 -0.851562 11.050781 -0.445312 10.28125 -0.15625 C 9.507812 0.125 8.679688 0.265625 7.796875 0.265625 Z M 2.8125 -7.40625 L 12.8125 -7.40625 C 12.75 -8.394531 12.488281 -9.257812 12.03125 -10 C 11.570312 -10.75 10.972656 -11.335938 10.234375 -11.765625 C 9.492188 -12.191406 8.679688 -12.40625 7.796875 -12.40625 C 6.910156 -12.40625 6.101562 -12.191406 5.375 -11.765625 C 4.65625 -11.335938 4.0625 -10.742188 3.59375 -9.984375 C 3.132812 -9.234375 2.875 -8.375 2.8125 -7.40625 Z M 2.8125 -7.40625 "/></g></g></g><g fill="#ffffff" fill-opacity="1"><g transform="translate(124.929573, 330.34993)"><g><path d="M 1.6875 -6.265625 L 1.6875 -7.90625 L 9.28125 -7.90625 L 9.28125 -6.265625 Z M 1.6875 -6.265625 "/></g></g></g><g fill="#ffffff" fill-opacity="1"><g transform="translate(135.898287, 330.34993)"><g><path d="M 8.578125 0.265625 C 7.523438 0.265625 6.546875 -0.00390625 5.640625 -0.546875 C 4.742188 -1.097656 4.039062 -1.789062 3.53125 -2.625 L 3.53125 0 L 1.953125 0 L 1.953125 -18.984375 L 3.71875 -18.984375 L 3.71875 -10.71875 C 4.320312 -11.632812 5.046875 -12.375 5.890625 -12.9375 C 6.742188 -13.5 7.734375 -13.78125 8.859375 -13.78125 C 9.816406 -13.78125 10.671875 -13.578125 11.421875 -13.171875 C 12.179688 -12.773438 12.828125 -12.242188 13.359375 -11.578125 C 13.898438 -10.910156 14.304688 -10.15625 14.578125 -9.3125 C 14.859375 -8.476562 15 -7.617188 15 -6.734375 C 15 -5.773438 14.835938 -4.878906 14.515625 -4.046875 C 14.203125 -3.222656 13.75 -2.484375 13.15625 -1.828125 C 12.5625 -1.179688 11.878906 -0.671875 11.109375 -0.296875 C 10.335938 0.078125 9.492188 0.265625 8.578125 0.265625 Z M 8.15625 -1.296875 C 8.882812 -1.296875 9.5625 -1.441406 10.1875 -1.734375 C 10.8125 -2.035156 11.347656 -2.445312 11.796875 -2.96875 C 12.253906 -3.488281 12.601562 -4.070312 12.84375 -4.71875 C 13.082031 -5.363281 13.203125 -6.035156 13.203125 -6.734375 C 13.203125 -7.679688 13 -8.578125 12.59375 -9.421875 C 12.1875 -10.265625 11.625 -10.941406 10.90625 -11.453125 C 10.1875 -11.960938 9.34375 -12.21875 8.375 -12.21875 C 7.675781 -12.21875 7.023438 -12.0625 6.421875 -11.75 C 5.828125 -11.4375 5.300781 -11.023438 4.84375 -10.515625 C 4.382812 -10.003906 4.007812 -9.445312 3.71875 -8.84375 L 3.71875 -4.625 C 3.789062 -4.15625 3.972656 -3.71875 4.265625 -3.3125 C 4.554688 -2.90625 4.921875 -2.550781 5.359375 -2.25 C 5.804688 -1.957031 6.269531 -1.722656 6.75 -1.546875 C 7.238281 -1.378906 7.707031 -1.296875 8.15625 -1.296875 Z M 8.15625 -1.296875 "/></g></g></g><g fill="#ffffff" fill-opacity="1"><g transform="translate(151.935488, 330.34993)"><g><path d="M 1.953125 0 L 1.953125 -13.546875 L 3.71875 -13.546875 L 3.71875 0 Z M 1.953125 -16.375 L 1.953125 -18.984375 L 3.71875 -18.984375 L 3.71875 -16.375 Z M 1.953125 -16.375 "/></g></g></g><g fill="#ffffff" fill-opacity="1"><g transform="translate(157.601789, 330.34993)"><g><path d="M 6.390625 0.265625 C 5.285156 0.265625 4.253906 0.0820312 3.296875 -0.28125 C 2.347656 -0.644531 1.523438 -1.203125 0.828125 -1.953125 L 1.5625 -3.203125 C 2.320312 -2.484375 3.085938 -1.960938 3.859375 -1.640625 C 4.628906 -1.328125 5.445312 -1.171875 6.3125 -1.171875 C 7.375 -1.171875 8.234375 -1.378906 8.890625 -1.796875 C 9.546875 -2.222656 9.875 -2.835938 9.875 -3.640625 C 9.875 -4.179688 9.710938 -4.59375 9.390625 -4.875 C 9.078125 -5.15625 8.617188 -5.382812 8.015625 -5.5625 C 7.421875 -5.75 6.707031 -5.945312 5.875 -6.15625 C 4.9375 -6.414062 4.148438 -6.6875 3.515625 -6.96875 C 2.890625 -7.257812 2.414062 -7.625 2.09375 -8.0625 C 1.769531 -8.507812 1.609375 -9.085938 1.609375 -9.796875 C 1.609375 -10.679688 1.828125 -11.414062 2.265625 -12 C 2.710938 -12.582031 3.320312 -13.023438 4.09375 -13.328125 C 4.863281 -13.628906 5.726562 -13.78125 6.6875 -13.78125 C 7.71875 -13.78125 8.632812 -13.613281 9.4375 -13.28125 C 10.238281 -12.957031 10.890625 -12.5 11.390625 -11.90625 L 10.53125 -10.71875 C 10.039062 -11.269531 9.460938 -11.675781 8.796875 -11.9375 C 8.128906 -12.207031 7.390625 -12.34375 6.578125 -12.34375 C 6.023438 -12.34375 5.492188 -12.269531 4.984375 -12.125 C 4.484375 -11.976562 4.070312 -11.734375 3.75 -11.390625 C 3.4375 -11.054688 3.28125 -10.597656 3.28125 -10.015625 C 3.28125 -9.523438 3.398438 -9.144531 3.640625 -8.875 C 3.878906 -8.601562 4.238281 -8.378906 4.71875 -8.203125 C 5.207031 -8.023438 5.8125 -7.832031 6.53125 -7.625 C 7.550781 -7.34375 8.441406 -7.054688 9.203125 -6.765625 C 9.960938 -6.484375 10.550781 -6.113281 10.96875 -5.65625 C 11.382812 -5.207031 11.59375 -4.578125 11.59375 -3.765625 C 11.59375 -2.503906 11.113281 -1.515625 10.15625 -0.796875 C 9.207031 -0.0859375 7.953125 0.265625 6.390625 0.265625 Z M 6.390625 0.265625 "/></g></g></g><g fill="#ffffff" fill-opacity="1"><g transform="translate(170.156026, 330.34993)"><g><path d="M 1.6875 -6.265625 L 1.6875 -7.90625 L 9.28125 -7.90625 L 9.28125 -6.265625 Z M 1.6875 -6.265625 "/></g></g></g><g fill="#ffffff" fill-opacity="1"><g transform="translate(181.124741, 330.34993)"><g><path d="M 8.703125 -11.984375 C 7.523438 -11.953125 6.488281 -11.625 5.59375 -11 C 4.707031 -10.375 4.082031 -9.515625 3.71875 -8.421875 L 3.71875 0 L 1.953125 0 L 1.953125 -13.546875 L 3.609375 -13.546875 L 3.609375 -10.296875 C 4.078125 -11.242188 4.695312 -12.015625 5.46875 -12.609375 C 6.238281 -13.203125 7.0625 -13.53125 7.9375 -13.59375 C 8.101562 -13.613281 8.25 -13.625 8.375 -13.625 C 8.507812 -13.625 8.617188 -13.613281 8.703125 -13.59375 Z M 8.703125 -11.984375 "/></g></g></g><g fill="#ffffff" fill-opacity="1"><g transform="translate(189.83208, 330.34993)"><g><path d="M 7.796875 0.265625 C 6.828125 0.265625 5.925781 0.078125 5.09375 -0.296875 C 4.257812 -0.671875 3.539062 -1.179688 2.9375 -1.828125 C 2.332031 -2.484375 1.859375 -3.234375 1.515625 -4.078125 C 1.179688 -4.929688 1.015625 -5.84375 1.015625 -6.8125 C 1.015625 -8.070312 1.300781 -9.226562 1.875 -10.28125 C 2.457031 -11.34375 3.257812 -12.191406 4.28125 -12.828125 C 5.3125 -13.460938 6.476562 -13.78125 7.78125 -13.78125 C 9.113281 -13.78125 10.273438 -13.457031 11.265625 -12.8125 C 12.265625 -12.175781 13.050781 -11.332031 13.625 -10.28125 C 14.195312 -9.226562 14.484375 -8.082031 14.484375 -6.84375 C 14.484375 -6.695312 14.484375 -6.554688 14.484375 -6.421875 C 14.484375 -6.296875 14.472656 -6.203125 14.453125 -6.140625 L 2.859375 -6.140625 C 2.941406 -5.171875 3.210938 -4.304688 3.671875 -3.546875 C 4.140625 -2.796875 4.738281 -2.195312 5.46875 -1.75 C 6.207031 -1.3125 7.007812 -1.09375 7.875 -1.09375 C 8.757812 -1.09375 9.59375 -1.316406 10.375 -1.765625 C 11.164062 -2.210938 11.71875 -2.800781 12.03125 -3.53125 L 13.578125 -3.125 C 13.296875 -2.476562 12.867188 -1.894531 12.296875 -1.375 C 11.722656 -0.851562 11.050781 -0.445312 10.28125 -0.15625 C 9.507812 0.125 8.679688 0.265625 7.796875 0.265625 Z M 2.8125 -7.40625 L 12.8125 -7.40625 C 12.75 -8.394531 12.488281 -9.257812 12.03125 -10 C 11.570312 -10.75 10.972656 -11.335938 10.234375 -11.765625 C 9.492188 -12.191406 8.679688 -12.40625 7.796875 -12.40625 C 6.910156 -12.40625 6.101562 -12.191406 5.375 -11.765625 C 4.65625 -11.335938 4.0625 -10.742188 3.59375 -9.984375 C 3.132812 -9.234375 2.875 -8.375 2.8125 -7.40625 Z M 2.8125 -7.40625 "/></g></g></g><g fill="#ffffff" fill-opacity="1"><g transform="translate(205.089514, 330.34993)"><g><path d="M 7.828125 0.265625 C 6.835938 0.265625 5.929688 0.078125 5.109375 -0.296875 C 4.285156 -0.671875 3.566406 -1.1875 2.953125 -1.84375 C 2.335938 -2.5 1.859375 -3.25 1.515625 -4.09375 C 1.179688 -4.945312 1.015625 -5.851562 1.015625 -6.8125 C 1.015625 -8.09375 1.300781 -9.257812 1.875 -10.3125 C 2.445312 -11.375 3.242188 -12.21875 4.265625 -12.84375 C 5.285156 -13.46875 6.460938 -13.78125 7.796875 -13.78125 C 9.066406 -13.78125 10.1875 -13.488281 11.15625 -12.90625 C 12.125 -12.320312 12.84375 -11.539062 13.3125 -10.5625 L 11.59375 -10.015625 C 11.21875 -10.703125 10.6875 -11.238281 10 -11.625 C 9.3125 -12.019531 8.550781 -12.21875 7.71875 -12.21875 C 6.820312 -12.21875 6 -11.984375 5.25 -11.515625 C 4.507812 -11.046875 3.914062 -10.40625 3.46875 -9.59375 C 3.03125 -8.78125 2.8125 -7.851562 2.8125 -6.8125 C 2.8125 -5.789062 3.035156 -4.863281 3.484375 -4.03125 C 3.929688 -3.195312 4.523438 -2.53125 5.265625 -2.03125 C 6.015625 -1.539062 6.84375 -1.296875 7.75 -1.296875 C 8.332031 -1.296875 8.894531 -1.398438 9.4375 -1.609375 C 9.988281 -1.816406 10.46875 -2.097656 10.875 -2.453125 C 11.28125 -2.804688 11.554688 -3.191406 11.703125 -3.609375 L 13.4375 -3.09375 C 13.195312 -2.445312 12.796875 -1.867188 12.234375 -1.359375 C 11.671875 -0.847656 11.007812 -0.445312 10.25 -0.15625 C 9.5 0.125 8.691406 0.265625 7.828125 0.265625 Z M 7.828125 0.265625 "/></g></g></g><g fill="#ffffff" fill-opacity="1"><g transform="translate(219.359242, 330.34993)"><g><path d="M 13.34375 0 L 11.5625 0 L 11.5625 -7.5625 C 11.5625 -9.09375 11.289062 -10.242188 10.75 -11.015625 C 10.21875 -11.785156 9.453125 -12.171875 8.453125 -12.171875 C 7.796875 -12.171875 7.140625 -12 6.484375 -11.65625 C 5.835938 -11.320312 5.265625 -10.863281 4.765625 -10.28125 C 4.273438 -9.695312 3.925781 -9.035156 3.71875 -8.296875 L 3.71875 0 L 1.953125 0 L 1.953125 -18.984375 L 3.71875 -18.984375 L 3.71875 -10.484375 C 4.257812 -11.484375 5.007812 -12.28125 5.96875 -12.875 C 6.925781 -13.476562 7.953125 -13.78125 9.046875 -13.78125 C 9.828125 -13.78125 10.488281 -13.640625 11.03125 -13.359375 C 11.582031 -13.085938 12.023438 -12.6875 12.359375 -12.15625 C 12.703125 -11.625 12.953125 -11.003906 13.109375 -10.296875 C 13.265625 -9.597656 13.34375 -8.8125 13.34375 -7.9375 Z M 13.34375 0 "/></g></g></g><g fill="#ffffff" fill-opacity="1"><g transform="translate(234.512706, 330.34993)"><g><path d="M 13.34375 0 L 11.5625 0 L 11.5625 -7.5625 C 11.5625 -9.15625 11.328125 -10.320312 10.859375 -11.0625 C 10.398438 -11.800781 9.664062 -12.171875 8.65625 -12.171875 C 7.96875 -12.171875 7.285156 -12 6.609375 -11.65625 C 5.929688 -11.320312 5.335938 -10.863281 4.828125 -10.28125 C 4.316406 -9.695312 3.945312 -9.035156 3.71875 -8.296875 L 3.71875 0 L 1.953125 0 L 1.953125 -13.546875 L 3.5625 -13.546875 L 3.5625 -10.484375 C 3.925781 -11.140625 4.398438 -11.710938 4.984375 -12.203125 C 5.578125 -12.703125 6.242188 -13.085938 6.984375 -13.359375 C 7.734375 -13.640625 8.507812 -13.78125 9.3125 -13.78125 C 10.050781 -13.78125 10.679688 -13.640625 11.203125 -13.359375 C 11.722656 -13.085938 12.140625 -12.691406 12.453125 -12.171875 C 12.765625 -11.660156 12.988281 -11.046875 13.125 -10.328125 C 13.269531 -9.609375 13.34375 -8.8125 13.34375 -7.9375 Z M 13.34375 0 "/></g></g></g><g fill="#ffffff" fill-opacity="1"><g transform="translate(249.66617, 330.34993)"><g><path d="M 1.8125 -5.59375 L 1.8125 -13.546875 L 3.59375 -13.546875 L 3.59375 -5.90625 C 3.59375 -4.363281 3.851562 -3.207031 4.375 -2.4375 C 4.90625 -1.675781 5.691406 -1.296875 6.734375 -1.296875 C 7.429688 -1.296875 8.101562 -1.445312 8.75 -1.75 C 9.394531 -2.050781 9.96875 -2.484375 10.46875 -3.046875 C 10.976562 -3.617188 11.363281 -4.273438 11.625 -5.015625 L 11.625 -13.546875 L 13.390625 -13.546875 L 13.390625 -2.125 C 13.390625 -1.882812 13.441406 -1.707031 13.546875 -1.59375 C 13.648438 -1.488281 13.804688 -1.425781 14.015625 -1.40625 L 14.015625 0 C 13.804688 0.0195312 13.640625 0.03125 13.515625 0.03125 C 13.398438 0.0390625 13.289062 0.046875 13.1875 0.046875 C 12.832031 0.015625 12.53125 -0.117188 12.28125 -0.359375 C 12.03125 -0.609375 11.894531 -0.90625 11.875 -1.25 L 11.828125 -3.0625 C 11.242188 -2.03125 10.441406 -1.21875 9.421875 -0.625 C 8.410156 -0.03125 7.316406 0.265625 6.140625 0.265625 C 4.710938 0.265625 3.632812 -0.226562 2.90625 -1.21875 C 2.175781 -2.207031 1.8125 -3.664062 1.8125 -5.59375 Z M 1.8125 -5.59375 "/></g></g></g><g fill="#ffffff" fill-opacity="1"><g transform="translate(265.105531, 330.34993)"><g><path d="M 13.34375 0 L 11.5625 0 L 11.5625 -7.5625 C 11.5625 -9.15625 11.328125 -10.320312 10.859375 -11.0625 C 10.398438 -11.800781 9.664062 -12.171875 8.65625 -12.171875 C 7.96875 -12.171875 7.285156 -12 6.609375 -11.65625 C 5.929688 -11.320312 5.335938 -10.863281 4.828125 -10.28125 C 4.316406 -9.695312 3.945312 -9.035156 3.71875 -8.296875 L 3.71875 0 L 1.953125 0 L 1.953125 -13.546875 L 3.5625 -13.546875 L 3.5625 -10.484375 C 3.925781 -11.140625 4.398438 -11.710938 4.984375 -12.203125 C 5.578125 -12.703125 6.242188 -13.085938 6.984375 -13.359375 C 7.734375 -13.640625 8.507812 -13.78125 9.3125 -13.78125 C 10.050781 -13.78125 10.679688 -13.640625 11.203125 -13.359375 C 11.722656 -13.085938 12.140625 -12.691406 12.453125 -12.171875 C 12.765625 -11.660156 12.988281 -11.046875 13.125 -10.328125 C 13.269531 -9.609375 13.34375 -8.8125 13.34375 -7.9375 Z M 13.34375 0 "/></g></g></g><g fill="#ffffff" fill-opacity="1"><g transform="translate(280.259018, 330.34993)"><g><path d="M 7.390625 0.1875 C 6.460938 0.1875 5.609375 -0.00390625 4.828125 -0.390625 C 4.054688 -0.773438 3.382812 -1.289062 2.8125 -1.9375 C 2.25 -2.582031 1.8125 -3.320312 1.5 -4.15625 C 1.195312 -4.988281 1.046875 -5.847656 1.046875 -6.734375 C 1.046875 -7.679688 1.195312 -8.578125 1.5 -9.421875 C 1.800781 -10.265625 2.234375 -11.015625 2.796875 -11.671875 C 3.359375 -12.328125 4.019531 -12.84375 4.78125 -13.21875 C 5.539062 -13.59375 6.390625 -13.78125 7.328125 -13.78125 C 8.492188 -13.78125 9.503906 -13.484375 10.359375 -12.890625 C 11.210938 -12.304688 11.9375 -11.582031 12.53125 -10.71875 L 12.53125 -13.546875 L 14.125 -13.546875 L 14.125 0.046875 C 14.125 1.296875 13.820312 2.347656 13.21875 3.203125 C 12.625 4.066406 11.816406 4.710938 10.796875 5.140625 C 9.785156 5.578125 8.679688 5.796875 7.484375 5.796875 C 5.941406 5.796875 4.691406 5.519531 3.734375 4.96875 C 2.785156 4.414062 2.007812 3.671875 1.40625 2.734375 L 2.5 1.875 C 3.03125 2.71875 3.742188 3.347656 4.640625 3.765625 C 5.535156 4.179688 6.484375 4.390625 7.484375 4.390625 C 8.367188 4.390625 9.179688 4.226562 9.921875 3.90625 C 10.660156 3.59375 11.25 3.113281 11.6875 2.46875 C 12.125 1.832031 12.34375 1.023438 12.34375 0.046875 L 12.34375 -2.625 C 11.820312 -1.78125 11.109375 -1.097656 10.203125 -0.578125 C 9.304688 -0.0664062 8.367188 0.1875 7.390625 0.1875 Z M 7.875 -1.296875 C 8.414062 -1.296875 8.929688 -1.390625 9.421875 -1.578125 C 9.921875 -1.773438 10.375 -2.03125 10.78125 -2.34375 C 11.195312 -2.664062 11.546875 -3.023438 11.828125 -3.421875 C 12.109375 -3.828125 12.28125 -4.238281 12.34375 -4.65625 L 12.34375 -8.84375 C 12.082031 -9.5 11.707031 -10.082031 11.21875 -10.59375 C 10.738281 -11.101562 10.191406 -11.5 9.578125 -11.78125 C 8.960938 -12.070312 8.328125 -12.21875 7.671875 -12.21875 C 6.910156 -12.21875 6.226562 -12.054688 5.625 -11.734375 C 5.03125 -11.421875 4.53125 -11 4.125 -10.46875 C 3.71875 -9.9375 3.398438 -9.34375 3.171875 -8.6875 C 2.941406 -8.03125 2.828125 -7.367188 2.828125 -6.703125 C 2.828125 -5.972656 2.957031 -5.285156 3.21875 -4.640625 C 3.476562 -3.992188 3.835938 -3.410156 4.296875 -2.890625 C 4.753906 -2.378906 5.289062 -1.984375 5.90625 -1.703125 C 6.53125 -1.429688 7.1875 -1.296875 7.875 -1.296875 Z M 7.875 -1.296875 "/></g></g></g><g fill="#ffffff" fill-opacity="1"><g transform="translate(296.322196, 330.34993)"><g><path d="M 1.6875 0 L 1.6875 -2.546875 L 3.21875 -2.546875 L 3.21875 0 Z M 1.6875 0 "/></g></g></g><g fill="#ffffff" fill-opacity="1"><g transform="translate(300.714827, 330.34993)"><g><path d="M 7.828125 0.265625 C 6.835938 0.265625 5.929688 0.078125 5.109375 -0.296875 C 4.285156 -0.671875 3.566406 -1.1875 2.953125 -1.84375 C 2.335938 -2.5 1.859375 -3.25 1.515625 -4.09375 C 1.179688 -4.945312 1.015625 -5.851562 1.015625 -6.8125 C 1.015625 -8.09375 1.300781 -9.257812 1.875 -10.3125 C 2.445312 -11.375 3.242188 -12.21875 4.265625 -12.84375 C 5.285156 -13.46875 6.460938 -13.78125 7.796875 -13.78125 C 9.066406 -13.78125 10.1875 -13.488281 11.15625 -12.90625 C 12.125 -12.320312 12.84375 -11.539062 13.3125 -10.5625 L 11.59375 -10.015625 C 11.21875 -10.703125 10.6875 -11.238281 10 -11.625 C 9.3125 -12.019531 8.550781 -12.21875 7.71875 -12.21875 C 6.820312 -12.21875 6 -11.984375 5.25 -11.515625 C 4.507812 -11.046875 3.914062 -10.40625 3.46875 -9.59375 C 3.03125 -8.78125 2.8125 -7.851562 2.8125 -6.8125 C 2.8125 -5.789062 3.035156 -4.863281 3.484375 -4.03125 C 3.929688 -3.195312 4.523438 -2.53125 5.265625 -2.03125 C 6.015625 -1.539062 6.84375 -1.296875 7.75 -1.296875 C 8.332031 -1.296875 8.894531 -1.398438 9.4375 -1.609375 C 9.988281 -1.816406 10.46875 -2.097656 10.875 -2.453125 C 11.28125 -2.804688 11.554688 -3.191406 11.703125 -3.609375 L 13.4375 -3.09375 C 13.195312 -2.445312 12.796875 -1.867188 12.234375 -1.359375 C 11.671875 -0.847656 11.007812 -0.445312 10.25 -0.15625 C 9.5 0.125 8.691406 0.265625 7.828125 0.265625 Z M 7.828125 0.265625 "/></g></g></g><g fill="#ffffff" fill-opacity="1"><g transform="translate(314.984555, 330.34993)"><g><path d="M 13.34375 0 L 11.5625 0 L 11.5625 -7.5625 C 11.5625 -9.09375 11.289062 -10.242188 10.75 -11.015625 C 10.21875 -11.785156 9.453125 -12.171875 8.453125 -12.171875 C 7.796875 -12.171875 7.140625 -12 6.484375 -11.65625 C 5.835938 -11.320312 5.265625 -10.863281 4.765625 -10.28125 C 4.273438 -9.695312 3.925781 -9.035156 3.71875 -8.296875 L 3.71875 0 L 1.953125 0 L 1.953125 -18.984375 L 3.71875 -18.984375 L 3.71875 -10.484375 C 4.257812 -11.484375 5.007812 -12.28125 5.96875 -12.875 C 6.925781 -13.476562 7.953125 -13.78125 9.046875 -13.78125 C 9.828125 -13.78125 10.488281 -13.640625 11.03125 -13.359375 C 11.582031 -13.085938 12.023438 -12.6875 12.359375 -12.15625 C 12.703125 -11.625 12.953125 -11.003906 13.109375 -10.296875 C 13.265625 -9.597656 13.34375 -8.8125 13.34375 -7.9375 Z M 13.34375 0 "/></g></g></g></svg>